<?xml version="1.0" encoding="UTF-8" standalone="no"?>
<svg
   version="1.1"
   viewBox="-5 -10 79.253998 93.123703"
   id="svg3"
   width="79.253998"
   height="93.123703"
   xmlns="http://www.w3.org/2000/svg"
   xmlns:svg="http://www.w3.org/2000/svg">
  <g
     id="g2"
     transform="translate(-15.3743,-13.4382)">
    <path
       d="m 64.664,20.105 c -1.4453,-0.57031 -3.082,0.12891 -3.6523,1.5742 -0.57422,1.4453 0.12891,3.0781 1.5703,3.6523 0.65625,0.25781 1.2891,0.55469 1.918,0.85156 l -11.688,20.242 C 51.90575,46.18287 50.9761,46.011 49.9917,46.011 c -0.98047,0 -1.9141,0.17188 -2.8203,0.41406 l -11.688,-20.242 c 0.63281,-0.29688 1.2656,-0.58594 1.918,-0.84766 1.4453,-0.57422 2.1484,-2.2109 1.5742,-3.6523 -0.57422,-1.4414 -2.207,-2.1484 -3.6523,-1.5742 -15.148,6.0234 -24.949,20.484 -24.949,36.828 0,21.852 17.773,39.625 39.625,39.625 21.852,0 39.629,-17.773 39.629,-39.625 0,-16.344 -9.8008,-30.801 -24.965,-36.832 z m 4.7266,8.8633 c 8.3047,5.7266 13.652,14.883 14.488,25.148 h -23.367 c -0.50781,-1.8828 -1.4609,-3.5781 -2.8008,-4.9141 z m -14.098,27.961 c 0,2.9219 -2.375,5.2969 -5.293,5.2969 -2.918,0 -5.2969,-2.3789 -5.2969,-5.2969 0,-2.918 2.3789,-5.2969 5.2969,-5.2969 2.918,0 5.293,2.375 5.293,5.2969 z m -24.684,-27.961 11.68,20.234 c -1.3398,1.3359 -2.293,3.0352 -2.8008,4.9141 h -23.367 c 0.83594,-10.266 6.1836,-19.422 14.488,-25.148 z m -14.465,30.773 h 23.348 c 0.50781,1.8828 1.4609,3.582 2.8008,4.9141 l -11.656,20.191 C 22.527,79.2019 16.9954,70.1314 16.1444,59.7414 Z m 19.367,27.906 11.672,-20.211 c 0.90234,0.24219 1.8359,0.41406 2.8203,0.41406 0.98047,0 1.9141,-0.17187 2.8203,-0.41406 l 11.672,20.211 c -4.4102,2.0859 -9.3086,3.2891 -14.496,3.2891 -5.1874,0 -10.086,-1.1992 -14.488,-3.2891 z m 33.855,-2.8008 -11.656,-20.191 c 1.3398,-1.3359 2.293,-3.0352 2.8008,-4.9141 h 23.352 c -0.85938,10.391 -6.3867,19.461 -14.496,25.105 z"
       id="path1"
       fill="currentColor" />
    <path
       d="m 46.121,23.387 c 0.80078,1.3828 2.2852,2.2383 3.8789,2.2383 1.5937,0 3.0781,-0.85547 3.875,-2.2383 h 0.0039 l 7.6328,-13.23 c 0.79688,-1.3789 0.79688,-3.0938 0,-4.4766 C 60.71472,4.2976 59.2264,3.4382 57.6327,3.4382 h -15.266 c -1.5938,0 -3.0781,0.85547 -3.875,2.2383 -0.79688,1.3789 -0.80078,3.0938 -0.0039,4.4766 z M 55.6483,9.063 49.9999,18.8521 44.3515,9.063 Z"
       id="path2"
       fill="currentColor" />
  </g>
</svg>
